<svg width="150" height="150" xmlns="http://www.w3.org/2000/svg"><g transform="rotate(33 75.451 74.963)" fill="none" fill-rule="evenodd"><circle fill="#FFF" cx="75" cy="75" r="75"/><circle fill="#000" cx="75.093" cy="75.24" r="65"/><path d="M75.593 132.24c31.757 0 57.5-25.744 57.5-57.5 0-31.757-25.743-57.5-57.5-57.5-31.756 0-57.5 25.743-57.5 57.5 0 31.756 25.744 57.5 57.5 57.5z" fill="#E0B258"/><path d="M77.827 124.652c27.338 0 49.5-22.162 49.5-49.5s-22.162-49.5-49.5-49.5c-27.339 0-49.5 22.162-49.5 49.5s22.161 49.5 49.5 49.5z" fill="#000"/><path d="M88.327 102.652c15.464 0 28-12.536 28-28s-12.536-28-28-28-28 12.536-28 28 12.536 28 28 28z" fill="#FFF"/><path d="M88.327 41.152c9.25 0 17.625 3.75 23.688 9.812 6.062 6.062 9.812 14.437 9.812 23.688 0 9.25-3.75 17.625-9.812 23.688-6.063 6.062-14.438 9.812-23.688 9.812-9.251 0-17.626-3.75-23.688-9.812-6.063-6.063-9.812-14.438-9.812-23.688 0-9.251 3.75-17.626 9.812-23.688 6.062-6.063 14.437-9.812 23.688-9.812z" stroke="#E0B258" stroke-width="3"/><path d="M94.327 56.652c4.97 0 9.47 2.014 12.728 5.272a17.944 17.944 0 015.272 12.728c0 4.97-2.015 9.47-5.272 12.728a17.944 17.944 0 01-12.728 5.272 17.944 17.944 0 01-12.728-5.272 17.944 17.944 0 01-5.272-12.728c0-4.97 2.014-9.47 5.272-12.728a17.944 17.944 0 0112.728-5.272z" stroke="#006EFF" stroke-width="4"/><path d="M94.327 89.652c8.284 0 15-6.716 15-15 0-8.285-6.716-15-15-15-8.285 0-15 6.715-15 15 0 8.284 6.715 15 15 15z" fill="#000"/></g></svg>