<svg xmlns="http://www.w3.org/2000/svg" width="128" height="128"><g fill="none" fill-rule="evenodd" transform="translate(-2.398 -5.18)"><path fill="#DE484F" d="M121.924 4.888 93.949 42.603l25.605 4.515z"/><path fill="#EC989B" d="m4.698 7.182 34.099 32.285-24.432 8.893z"/><path fill="#FCE6E8" d="M19.398 85.18h48v48h-48z"/><path fill="#D2DBEC" d="M67.398 85.18h48v48h-48z"/><path fill="#EC989B" d="M67.398 37.18h48v48h-48z"/><path fill="#DE484F" d="M19.398 37.18h48v48h-48z"/><path stroke="#000" d="M83.398 89.18h45.406M83.398 82.18l43.218-6M82.398 95.18l44.435 4.46M50.805 89.18H5.399M50.616 82.18l-43.218-4M51.834 95.18 9.399 99.64"/><ellipse cx="44.898" cy="65.18" fill="#FFF" rx="8.5" ry="8"/><path fill="#000" d="M44.898 72.18q2.5-3.5 2.5-7t-2.5-7q-2.5 3.5-2.5 7t2.5 7"/><ellipse cx="87.898" cy="65.18" fill="#FFF" rx="8.5" ry="8"/><path fill="#000" d="M87.898 72.18q2.5-3.5 2.5-7t-2.5-7q-2.5 3.5-2.5 7t2.5 7M67.398 81.18l7-7h-14z"/></g></svg>